<?xml version="1.0" encoding="UTF-8" standalone="no"?>
<svg width="9px" height="18px" viewBox="0 0 9 18" version="1.1" xmlns="http://www.w3.org/2000/svg" xmlns:xlink="http://www.w3.org/1999/xlink">
    <!-- Generator: Sketch 42 (36781) - http://www.bohemiancoding.com/sketch -->
    <title>Page 1</title>
    <desc>Created with Sketch.</desc>
    <defs></defs>
    <g id="Symbols" stroke="none" stroke-width="1" fill="none" fill-rule="evenodd">
        <g id="Desktop-Footer" transform="translate(-742.000000, 0.000000)" fill="#000000">
            <g id="footer">
                <g id="Social" transform="translate(742.000000, 0.000000)">
                    <path d="M2.23255814,17.8604651 L5.58139535,17.8604651 L5.58139535,8.93023256 L8.61627907,8.93023256 L8.93023256,5.86046512 L5.58139535,5.86046512 L5.58139535,4.3255814 C5.58139535,3.86046363 5.65116279,3.53488521 5.79069767,3.34883721 C5.93023256,3.16278921 6.26743814,3.06976744 6.80232558,3.06976744 L8.93023256,3.06976744 L8.93023256,0 L5.86046512,0 C4.46510958,0 3.51163088,0.331392 3,0.99418493 C2.48836912,1.65698009 2.23255814,2.67441265 2.23255814,4.04651163 L2.23255814,5.86046512 L0,5.86046512 L0,8.93023256 L2.23255814,8.93023256 L2.23255814,17.8604651 Z" id="Page-1"></path>
                </g>
            </g>
        </g>
    </g>
</svg>