<?xml version="1.0" encoding="UTF-8" standalone="no"?>
<svg width="512px" height="512px" viewBox="0 0 512 512" version="1.1" xmlns="http://www.w3.org/2000/svg" xmlns:xlink="http://www.w3.org/1999/xlink" style="background: #FFFFFF;">
    <!-- Generator: Sketch 42 (36781) - http://www.bohemiancoding.com/sketch -->
    <title>Artboard</title>
    <desc>Created with Sketch.</desc>
    <defs></defs>
    <g id="Symbols" stroke="none" stroke-width="1" fill="none" fill-rule="evenodd">
        <g id="Artboard" fill="#FF3250">
            <g id="Group-2" transform="translate(95.000000, 199.000000)">
                <path d="M130.062066,98.4659404 L104.79843,98.4659404 L104.79843,15.7993946 L130.062066,15.7993946 C153.793365,15.7993946 170.354183,30.1084521 170.354183,57.1341427 C170.354183,84.1598334 153.793365,98.4659404 130.062066,98.4659404 M131.643482,1.49328764 L88.9763058,1.49328764 L88.9763058,112.774576 L131.643482,112.774576 C162.494087,112.774576 186.175469,92.1076238 186.175469,57.1341427 C186.175469,22.1577112 162.494087,1.49328764 131.643482,1.49328764" id="Fill-1"></path>
                <path d="M267.807169,98.6240869 C245.038981,98.6240869 226.515447,80.0102573 226.515447,57.1338055 C226.515447,34.2577753 245.038981,15.6439457 267.807169,15.6439457 C283.705218,15.6439457 298.362884,24.9814192 305.149128,39.4308359 L319.227501,32.7513368 C309.885404,12.857414 289.700754,0 267.807169,0 C236.454874,0 210.946685,25.6292636 210.946685,57.1338055 C210.946685,88.638769 236.454874,114.268033 267.807169,114.268033 C289.662163,114.268033 309.830873,101.444339 319.190168,81.5988881 L305.119345,74.9016861 C298.324293,89.3110604 283.677953,98.6240869 267.807169,98.6240869" id="Fill-3"></path>
                <polygon id="Fill-5" points="49.6375688 1.49328764 0 1.49328764 0 15.7998161 33.8154443 15.7998161 33.8154443 98.4684694 0 98.4684694 0 112.774998 49.6375688 112.774998 49.6375688 98.4684694"></polygon>
            </g>
        </g>
    </g>
</svg>