<?xml version="1.0" encoding="UTF-8" standalone="no"?>
<svg width="258px" height="16px" viewBox="0 0 258 16" version="1.1" xmlns="http://www.w3.org/2000/svg" xmlns:xlink="http://www.w3.org/1999/xlink">
    <!-- Generator: Sketch 42 (36781) - http://www.bohemiancoding.com/sketch -->
    <title>Group 2</title>
    <desc>Created with Sketch.</desc>
    <defs></defs>
    <g id="Symbols" stroke="none" stroke-width="1" fill="none" fill-rule="evenodd">
        <g id="Desktop-Footer" transform="translate(0.000000, -1.000000)" fill="#000000">
            <g id="footer">
                <g id="Group-2" transform="translate(0.000000, 1.000000)">
                    <path d="M151.419011,10.5145778 C153.935612,10.5145778 155.691861,8.99035556 155.691861,6.11124444 C155.691861,3.23191111 153.935612,1.70746667 151.419011,1.70746667 L148.73995,1.70746667 L148.73995,10.5145778 L151.419011,10.5145778 L151.419011,10.5145778 Z M147.062069,0.183466667 L151.586755,0.183466667 C154.858424,0.183466667 157.369742,2.38502222 157.369742,6.11124444 C157.369742,9.83724444 154.858424,12.0390222 151.586755,12.0390222 L147.062069,12.0390222 L147.062069,0.183466667 L147.062069,0.183466667 Z" id="Fill-1"></path>
                    <path d="M168.347113,9.4138 L169.941122,9.4138 C170.041724,10.3622444 170.813523,10.8535778 171.786746,10.8535778 L171.95449,10.8535778 C172.809941,10.8535778 173.497868,10.4298 173.497868,9.75246667 C173.497868,9.21046667 173.19606,8.8378 172.3569,8.66846667 L171.132281,8.43135556 C169.773378,8.16046667 168.682822,7.44913333 168.682822,6.00935556 C168.682822,4.3158 170.176008,3.40135556 171.853668,3.40135556 C174.051731,3.40135556 175.175968,4.58668889 175.175968,6.1958 L173.58196,6.1958 C173.497868,5.4338 172.961175,4.75602222 171.95449,4.75602222 L171.786746,4.75602222 C170.863714,4.75602222 170.27661,5.24735556 170.27661,5.84002222 C170.27661,6.34802222 170.612098,6.75468889 171.451258,6.92402222 L172.7767,7.19513333 C174.051731,7.44913333 175.091876,8.14357778 175.091876,9.6678 C175.091876,11.1922444 173.732973,12.2084667 171.786746,12.2084667 C169.555223,12.2084667 168.430985,11.0229111 168.347113,9.4138" id="Fill-3"></path>
                    <path d="M184.858497,10.6839333 C185.999465,10.6839333 187.377299,9.58304444 187.377299,7.71993333 C187.377299,5.85704444 186.083337,4.75615556 184.942369,4.75615556 L184.774625,4.75615556 C183.599976,4.75615556 182.289504,5.60304444 182.289504,7.71993333 C182.289504,9.83726667 183.516104,10.6839333 184.690753,10.6839333 L184.858497,10.6839333 Z M180.747888,13.1397111 L182.341896,13.1397111 C182.50964,13.9868222 183.52447,14.6323778 184.665437,14.6323778 L184.833181,14.6323778 C186.259226,14.6323778 187.377299,13.6481556 187.377299,11.8697111 L187.377299,10.6839333 C186.957719,11.3614889 185.898642,12.0390444 184.640562,12.0390444 C182.710845,12.0390444 180.695495,10.6839333 180.695495,7.71993333 C180.695495,4.75615556 182.660654,3.40126667 184.640562,3.40126667 C185.898642,3.40126667 187.041591,4.0786 187.377299,4.75615556 L187.377299,3.5706 L188.971087,3.5706 L188.971087,12.0390444 C188.971087,14.1561556 187.570139,15.9872667 184.969446,15.9872667 C182.620589,15.9872667 180.915632,14.6641556 180.747888,13.1397111 L180.747888,13.1397111 Z" id="Fill-5"></path>
                    <path d="M192.865611,12.039 L191.271822,12.039 L191.271822,3.57055556 L192.865611,3.57055556 L192.865611,4.75611111 C193.369063,3.99411111 194.208003,3.40122222 195.549955,3.40122222 C197.479672,3.40122222 198.570008,4.58677778 198.570008,6.36522222 L198.570008,12.039 L196.97622,12.039 L196.97622,6.70388889 C196.97622,5.51855556 196.472988,4.75611111 195.298339,4.75611111 L195.130595,4.75611111 C193.956387,4.75611111 192.865611,5.68788889 192.865611,7.29655556 L192.865611,12.039 Z" id="Fill-8"></path>
                    <path d="M160.772172,6.7886 L165.279907,6.7886 C165.212766,5.31526667 164.01016,4.75615556 163.070617,4.75615556 L162.902873,4.75615556 C162.046982,4.75615556 161.074199,5.28126667 160.772172,6.7886 M163.131815,12.2083778 C161.051525,12.2083778 159.077561,10.7517111 159.077561,7.78793333 C159.077561,4.85793333 161.006837,3.40126667 162.986745,3.40126667 C165.167858,3.40126667 166.873696,4.82837778 166.873696,7.46704444 L166.873696,8.05904444 L160.671349,8.05904444 C160.772172,9.98971111 162.036196,10.8534889 163.076341,10.8534889 L163.177163,10.8534889 C164.016103,10.8534889 165.095213,10.4299333 165.263177,9.53237778 L166.856965,9.53237778 C166.588399,11.2770444 164.876837,12.2083778 163.131815,12.2083778" id="Fill-10"></path>
                    <path d="M177.066853,12.039 L178.660641,12.039 L178.660641,3.57055556 L177.066853,3.57055556 L177.066853,12.039 Z M176.982981,2.04633333 L178.744513,2.04633333 L178.744513,0.183444444 L176.982981,0.183444444 L176.982981,2.04633333 Z" id="Fill-12"></path>
                    <path d="M47.3595983,12.039 L45.7658099,12.039 L45.7658099,3.57055556 L47.3595983,3.57055556 L47.3595983,4.75611111 C47.8630505,3.99411111 48.7019908,3.40122222 50.043943,3.40122222 C51.9736597,3.40122222 53.0639959,4.58677778 53.0639959,6.36522222 L53.0639959,12.039 L51.4702075,12.039 L51.4702075,6.70388889 C51.4702075,5.51855556 50.9669754,4.75611111 49.792327,4.75611111 L49.6245829,4.75611111 C48.4503747,4.75611111 47.3595983,5.68788889 47.3595983,7.29655556 L47.3595983,12.039 Z" id="Fill-14"></path>
                    <polygon id="Fill-15" points="56.5264572 12.039 56.5264572 4.95944444 54.6810527 4.95944444 54.6810527 3.57055556 56.5264572 3.57055556 56.5264572 0.826777778 58.1204657 0.826777778 58.1204657 3.57055556 60.1338343 3.57055556 60.1338343 4.95944444 58.1204657 4.95944444 58.1204657 10.5992222 60.3854503 10.5992222 60.3854503 12.039"></polygon>
                    <path d="M63.4457222,6.7886 L67.9534577,6.7886 C67.8865362,5.31526667 66.6837102,4.75615556 65.7443877,4.75615556 L65.5766437,4.75615556 C64.720973,4.75615556 63.7477495,5.28126667 63.4457222,6.7886 M65.7107068,12.2083778 C63.6304167,12.2083778 61.7511113,10.7517111 61.7511113,7.78793333 C61.7511113,4.85793333 63.6806078,3.40126667 65.6605157,3.40126667 C67.8416283,3.40126667 69.5474662,4.92548889 69.5474662,7.12726667 L69.5474662,8.05904444 L63.3451198,8.05904444 C63.4457222,9.98971111 64.6705618,10.8534889 65.7107068,10.8534889 L65.8113092,10.8534889 C66.6504696,10.8534889 67.7692034,10.4299333 67.9369474,9.53237778 L69.5307358,9.53237778 C69.2623894,11.2770444 67.4555089,12.2083778 65.7107068,12.2083778" id="Fill-16"></path>
                    <path d="M79.8868602,12.039 L78.2930718,12.039 L78.2930718,3.57055556 L79.8868602,3.57055556 L79.8868602,4.75611111 C80.3903125,3.99411111 81.2292527,3.40122222 82.5712049,3.40122222 C84.5009217,3.40122222 85.5912578,4.58677778 85.5912578,6.36522222 L85.5912578,12.039 L83.9974695,12.039 L83.9974695,6.70388889 C83.9974695,5.51855556 83.4942374,4.75611111 82.3195889,4.75611111 L82.1518449,4.75611111 C80.9776367,4.75611111 79.8868602,5.68788889 79.8868602,7.29655556 L79.8868602,12.039 Z" id="Fill-17"></path>
                    <path d="M104.101723,12.039 L105.695512,12.039 L105.695512,3.57055556 L104.101723,3.57055556 L104.101723,12.039 Z M104.017851,2.04633333 L105.779384,2.04633333 L105.779384,0.183444444 L104.017851,0.183444444 L104.017851,2.04633333 Z" id="Fill-18"></path>
                    <path d="M114.816824,7.80468889 C114.816824,5.85713333 113.590003,4.75602222 112.247831,4.75602222 L112.080087,4.75602222 C110.737915,4.75602222 109.510874,5.85713333 109.510874,7.80468889 C109.510874,9.75246667 110.737915,10.8535778 112.080087,10.8535778 L112.247831,10.8535778 C113.590003,10.8535778 114.816824,9.75246667 114.816824,7.80468889 M107.917305,7.80468889 C107.917305,5.17957778 109.898754,3.40135556 112.163959,3.40135556 C114.428944,3.40135556 116.410833,5.17957778 116.410833,7.80468889 C116.410833,10.4298 114.428944,12.2082444 112.163959,12.2082444 C109.898754,12.2082444 107.917305,10.4298 107.917305,7.80468889" id="Fill-19"></path>
                    <path d="M119.895264,12.039 L118.301255,12.039 L118.301255,3.57055556 L119.895264,3.57055556 L119.895264,4.75611111 C120.398496,3.99411111 121.237436,3.40122222 122.579608,3.40122222 C124.509325,3.40122222 125.599661,4.58677778 125.599661,6.36522222 L125.599661,12.039 L124.005653,12.039 L124.005653,6.70388889 C124.005653,5.51855556 123.502421,4.75611111 122.327992,4.75611111 L122.160248,4.75611111 C120.9856,4.75611111 119.895264,5.68788889 119.895264,7.29655556 L119.895264,12.039 Z" id="Fill-20"></path>
                    <polygon id="Fill-21" points="137.322966 12.039 138.916974 12.039 138.916974 0.183444444 137.322966 0.183444444"></polygon>
                    <polygon id="Fill-22" points="76.3474613 3.57066667 71.4298316 3.57066667 71.4298316 12.0391111 73.0233998 12.0391111 73.0233998 5.01044444 76.3474613 5.01044444"></polygon>
                    <polygon id="Fill-23" points="98.0697625 12.039 98.0697625 4.95944444 96.224358 4.95944444 96.224358 3.57055556 98.0697625 3.57055556 98.0697625 0.826777778 99.663771 0.826777778 99.663771 3.57055556 101.67714 3.57055556 101.67714 4.95944444 99.663771 4.95944444 99.663771 10.5992222 101.928756 10.5992222 101.928756 12.039"></polygon>
                    <path d="M93.1736621,8.9904 C93.1736621,10.0066222 91.9151416,10.8535111 90.9086775,10.8535111 L90.7409334,10.8535111 C89.9689147,10.8535111 89.398541,10.3284 89.398541,9.63395556 C89.398541,8.85506667 90.103198,8.38062222 91.0764215,8.29595556 L93.1736621,8.12662222 L93.1736621,8.9904 Z M91.3617184,3.40128889 C89.4656826,3.40128889 88.073099,4.46817778 87.9724966,6.02662222 L89.566285,6.02662222 C89.6671075,5.17951111 90.4219556,4.75617778 91.3280375,4.75617778 L91.4119096,4.75617778 C92.502686,4.75617778 93.1736621,5.43373333 93.1736621,6.61928889 L93.1736621,6.8904 L90.8582662,7.07662222 C89.4993635,7.19506667 87.8047526,7.77106667 87.8047526,9.70173333 C87.8047526,11.1412889 88.9791809,12.2084 90.5731894,12.2084 C91.8185017,12.2084 92.7741143,11.5519556 93.1736621,10.8484 L93.1736621,12.0390667 L94.7674505,12.0390667 L94.7674505,6.61928889 C94.7674505,4.89173333 93.5930222,3.40128889 91.3617184,3.40128889 L91.3617184,3.40128889 Z" id="Fill-24"></path>
                    <polygon id="Fill-25" points="42.726407 1.70753333 42.726407 0.183311111 37.9027756 0.183311111 37.9027756 1.70753333 41.0485265 1.70753333 41.0485265 10.5148667 37.9027756 10.5148667 37.9027756 12.0390889 42.726407 12.0390889 42.726407 10.5148667"></polygon>
                    <path d="M133.182066,8.9904 C133.182066,10.0066222 131.923545,10.8535111 130.917081,10.8535111 L130.749337,10.8535111 C129.977318,10.8535111 129.406944,10.3284 129.406944,9.63395556 C129.406944,8.85506667 130.111601,8.38062222 131.084825,8.29595556 L133.182066,8.12662222 L133.182066,8.9904 Z M131.370122,3.40128889 C129.474086,3.40128889 128.081502,4.46817778 127.9809,6.02662222 L129.574688,6.02662222 C129.675511,5.17951111 130.430359,4.75617778 131.336441,4.75617778 L131.420313,4.75617778 C132.511089,4.75617778 133.182066,5.43373333 133.182066,6.61928889 L133.182066,6.8904 L130.86667,7.07662222 C129.507767,7.19506667 127.813156,7.77106667 127.813156,9.70173333 C127.813156,11.1412889 128.987584,12.2084 130.581593,12.2084 C131.826905,12.2084 132.782518,11.5519556 133.182066,10.8484 L133.182066,12.0390667 L134.775854,12.0390667 L134.775854,6.61928889 C134.775854,4.89173333 133.601426,3.40128889 131.370122,3.40128889 L131.370122,3.40128889 Z" id="Fill-26"></path>
                    <path d="M219.389552,6.78691111 L223.897287,6.78691111 C223.830145,5.31357778 222.62754,4.75446667 221.687997,4.75446667 L221.520253,4.75446667 C220.664362,4.75446667 219.691579,5.27957778 219.389552,6.78691111 M221.749195,12.2066889 C219.668905,12.2066889 217.694941,10.7500222 217.694941,7.78624444 C217.694941,4.85624444 219.624217,3.39957778 221.604125,3.39957778 C223.785238,3.39957778 225.491075,4.82668889 225.491075,7.46535556 L225.491075,8.05735556 L219.288729,8.05735556 C219.389552,9.98802222 220.653575,10.8518 221.693941,10.8518 L221.794543,10.8518 C222.633483,10.8518 223.712592,10.4282444 223.880557,9.53068889 L225.474345,9.53068889 C225.205999,11.2753556 223.494217,12.2066889 221.749195,12.2066889" id="Fill-27"></path>
                    <path d="M228.882411,12.0373111 L227.288622,12.0373111 L227.288622,3.56886667 L228.882411,3.56886667 L228.882411,4.75442222 C229.385863,3.99242222 230.224803,3.39953333 231.566755,3.39953333 C233.496472,3.39953333 234.586808,4.58508889 234.586808,6.36353333 L234.586808,12.0373111 L232.99302,12.0373111 L232.99302,6.7022 C232.99302,5.51686667 232.489788,4.75442222 231.315139,4.75442222 L231.147395,4.75442222 C229.973187,4.75442222 228.882411,5.6862 228.882411,7.29486667 L228.882411,12.0373111 Z" id="Fill-28"></path>
                    <path d="M210.728941,12.1737778 C207.404219,12.1737778 204.699181,9.44333333 204.699181,6.08688889 C204.699181,2.73044444 207.404219,0 210.728941,0 C213.05072,0 215.191328,1.36977778 216.181942,3.48911111 L214.688976,4.20088889 C213.96935,2.66133333 212.414966,1.66666667 210.728941,1.66666667 C208.314483,1.66666667 206.350205,3.64977778 206.350205,6.08688889 C206.350205,8.524 208.314483,10.5071111 210.728941,10.5071111 C212.412104,10.5071111 213.965168,9.51488889 214.685895,7.97977778 L216.17798,8.69333333 C215.185384,10.8075556 213.046758,12.1737778 210.728941,12.1737778" id="Fill-29"></path>
                    <path d="M244.968556,6.78691111 L249.476292,6.78691111 C249.40915,5.31357778 248.206545,4.75446667 247.267002,4.75446667 L247.099258,4.75446667 C246.243367,4.75446667 245.270364,5.27957778 244.968556,6.78691111 M247.3282,12.2066889 C245.24791,12.2066889 243.273946,10.7500222 243.273946,7.78624444 C243.273946,4.85624444 245.203222,3.39957778 247.18313,3.39957778 C249.364242,3.39957778 251.07008,4.82668889 251.07008,7.46535556 L251.07008,8.05735556 L244.867734,8.05735556 C244.968556,9.98802222 246.23258,10.8518 247.272725,10.8518 L247.373548,10.8518 C248.212488,10.8518 249.291597,10.4282444 249.459562,9.53068889 L251.05335,9.53068889 C250.784783,11.2753556 249.073222,12.2066889 247.3282,12.2066889" id="Fill-30"></path>
                    <polygon id="Fill-31" points="257.895479 3.56895556 252.977849 3.56895556 252.977849 12.0374 254.571418 12.0374 254.571418 5.00873333 257.895479 5.00873333"></polygon>
                    <polygon id="Fill-32" points="238.049291 12.0373111 238.049291 4.95775556 236.203887 4.95775556 236.203887 3.56886667 238.049291 3.56886667 238.049291 0.825088889 239.6433 0.825088889 239.6433 3.56886667 241.656669 3.56886667 241.656669 4.95775556 239.6433 4.95775556 239.6433 10.5975333 241.908285 10.5975333 241.908285 12.0373111"></polygon>
                    <polygon id="Fill-33" points="1.67766041 1.67357778 1.67766041 12.0389111 0 12.0389111 0 0.183355556 2.7849471 0.183355556 6.29172184 10.4469111 9.73091468 0.183355556 12.4993515 0.183355556 12.4993515 12.0389111 10.8216911 12.0389111 10.8216911 1.62291111 7.36532765 12.0389111 5.2178959 12.0389111"></polygon>
                    <polygon id="Fill-34" points="24.3257677 1.70751111 20.1315067 1.70751111 20.1315067 0.183288889 30.1979094 0.183288889 30.1979094 1.70751111 26.0036483 1.70751111 26.0036483 12.0390667 24.3257677 12.0390667"></polygon>
                    <polygon id="Fill-35" points="15.7265969 12.039 17.4044775 12.039 17.4044775 0.183222222 15.7265969 0.183222222"></polygon>
                </g>
            </g>
        </g>
    </g>
</svg>