<?xml version="1.0" encoding="UTF-8" standalone="no"?>
<svg width="96px" height="35px" viewBox="0 0 96 35" version="1.1" xmlns="http://www.w3.org/2000/svg" xmlns:xlink="http://www.w3.org/1999/xlink">
    <!-- Generator: Sketch 42 (36781) - http://www.bohemiancoding.com/sketch -->
    <title>idc_white_v6</title>
    <desc>Created with Sketch.</desc>
    <defs></defs>
    <g id="Page-1" stroke="none" stroke-width="1" fill="none" fill-rule="evenodd">
        <g id="idc_white_v6" fill-rule="nonzero" fill="#FFFFFF">
            <g id="Symbols">
                <g id="Artboard-Copy-2">
                    <g id="Group-2">
                        <path d="M39.0186199,29.9678949 L31.4395291,29.9678949 L31.4395291,4.8085114 L39.0186199,4.8085114 C46.1380096,4.8085114 51.1062549,9.16344194 51.1062549,17.3886521 C51.1062549,25.6138623 46.1380096,29.9678949 39.0186199,29.9678949 M39.4930446,0.454478847 L26.6928917,0.454478847 L26.6928917,34.3226971 L39.4930446,34.3226971 C48.748226,34.3226971 55.8526406,28.0327551 55.8526406,17.3886521 C55.8526406,6.74365124 48.748226,0.454478847 39.4930446,0.454478847" id="Fill-1"></path>
                        <path d="M80.3421508,30.0160264 C73.5116944,30.0160264 67.9546341,24.3509479 67.9546341,17.3885495 C67.9546341,10.4262794 73.5116944,4.76120086 80.3421508,4.76120086 C85.1115655,4.76120086 89.5088653,7.60304062 91.5447384,12.0006892 L95.7682502,9.96779817 C92.9656213,3.91312599 86.9102263,0 80.3421508,0 C70.9364621,0 63.2840054,7.80021065 63.2840054,17.3885495 C63.2840054,26.9770167 70.9364621,34.7772273 80.3421508,34.7772273 C86.8986489,34.7772273 92.9492618,30.8743639 95.7570503,24.8344442 L91.5358036,22.7961653 C89.4972878,27.1816271 85.1033858,30.0160264 80.3421508,30.0160264" id="Fill-3"></path>
                        <polygon id="Fill-5" points="14.8912706 0.454478847 0 0.454478847 0 4.80863969 10.1446333 4.80863969 10.1446333 29.9686646 0 29.9686646 0 34.3228254 14.8912706 34.3228254 14.8912706 29.9686646"></polygon>
                    </g>
                </g>
            </g>
        </g>
    </g>
</svg>