<?xml version="1.0" encoding="UTF-8" standalone="no"?>
<svg width="19px" height="19px" viewBox="0 0 19 19" version="1.1" xmlns="http://www.w3.org/2000/svg" xmlns:xlink="http://www.w3.org/1999/xlink">
    <!-- Generator: Sketch 42 (36781) - http://www.bohemiancoding.com/sketch -->
    <title>Instagram</title>
    <desc>Created with Sketch.</desc>
    <defs></defs>
    <g id="Symbols" stroke="none" stroke-width="1" fill="none" fill-rule="evenodd">
        <g id="Desktop-Footer" transform="translate(-796.000000, 0.000000)" fill="#000000">
            <g id="footer">
                <g id="Social" transform="translate(728.000000, 0.000000)">
                    <path d="M84.720983,15.9352687 L84.720983,7.97991115 L83.0636169,7.97991115 C83.2232151,8.48325939 83.3091526,9.03571478 83.3091526,9.58817016 C83.3091526,12.7310275 80.6819203,15.2723223 77.4408487,15.2723223 C74.2120539,15.2723223 71.5848216,12.7310275 71.5848216,9.58817016 C71.5848216,9.03571478 71.6707591,8.48325939 71.8303574,7.97991115 L70.0993305,7.97991115 L70.0993305,15.9352687 C70.0993305,16.3526795 70.4308037,16.6841527 70.8482144,16.6841527 L83.9720991,16.6841527 C84.3895098,16.6841527 84.720983,16.3526795 84.720983,15.9352687 Z M81.2343757,9.39174158 C81.2343757,7.36607183 79.5401792,5.72098245 77.4408487,5.72098245 C75.353795,5.72098245 73.6595985,7.36607183 73.6595985,9.39174158 C73.6595985,11.4174113 75.353795,13.0625007 77.4408487,13.0625007 C79.5401792,13.0625007 81.2343757,11.4174113 81.2343757,9.39174158 Z M84.720983,4.97209848 L84.720983,2.94642873 C84.720983,2.47991085 84.3404027,2.09933047 83.8738848,2.09933047 L81.737724,2.09933047 C81.2712061,2.09933047 80.8906257,2.47991085 80.8906257,2.94642873 L80.8906257,4.97209848 C80.8906257,5.43861637 81.2712061,5.81919674 81.737724,5.81919674 L83.8738848,5.81919674 C84.3404027,5.81919674 84.720983,5.43861637 84.720983,4.97209848 Z M86.8571439,2.41852692 L86.8571439,16.438617 C86.8571439,17.7645099 85.7645099,18.8571439 84.438617,18.8571439 L70.4185269,18.8571439 C69.092634,18.8571439 68,17.7645099 68,16.438617 L68,2.41852692 C68,1.09263399 69.092634,0 70.4185269,0 L84.438617,0 C85.7645099,0 86.8571439,1.09263399 86.8571439,2.41852692 Z" id="Instagram"></path>
                </g>
            </g>
        </g>
    </g>
</svg>