<?xml version="1.0" encoding="utf-8"?>
<!-- Generator: Adobe Illustrator 21.0.2, SVG Export Plug-In . SVG Version: 6.00 Build 0)  -->
<svg version="1.1" id="Layer_1" xmlns="http://www.w3.org/2000/svg" xmlns:xlink="http://www.w3.org/1999/xlink" x="0px" y="0px"
	 width="19px" height="19px" viewBox="0 0 19 19" style="enable-background:new 0 0 19 19;" xml:space="preserve">
<style type="text/css">
	.st0{fill:#FFFFFF;}
</style>
<title>Instagram</title>
<desc>Created with Sketch.</desc>
<g id="Symbols">
	<g id="Desktop-Footer" transform="translate(-796.000000, 0.000000)">
		<g id="footer">
			<g id="Social" transform="translate(728.000000, 0.000000)">
				<path id="Instagram" class="st0" d="M84.7,15.9V8h-1.7c0.2,0.5,0.2,1.1,0.2,1.6c0,3.1-2.6,5.7-5.9,5.7c-3.2,0-5.9-2.5-5.9-5.7
					c0-0.6,0.1-1.1,0.2-1.6h-1.7v8c0,0.4,0.3,0.7,0.7,0.7H84C84.4,16.7,84.7,16.4,84.7,15.9z M81.2,9.4c0-2-1.7-3.7-3.8-3.7
					c-2.1,0-3.8,1.6-3.8,3.7s1.7,3.7,3.8,3.7C79.5,13.1,81.2,11.4,81.2,9.4z M84.7,5v-2c0-0.5-0.4-0.8-0.8-0.8h-2.1
					c-0.5,0-0.8,0.4-0.8,0.8v2c0,0.5,0.4,0.8,0.8,0.8h2.1C84.3,5.8,84.7,5.4,84.7,5z M86.9,2.4v14c0,1.3-1.1,2.4-2.4,2.4h-14
					c-1.3,0-2.4-1.1-2.4-2.4v-14C68,1.1,69.1,0,70.4,0h14C85.8,0,86.9,1.1,86.9,2.4z"/>
			</g>
		</g>
	</g>
</g>
</svg>
