<?xml version="1.0" encoding="UTF-8" standalone="no"?>
<svg width="35px" height="19px" viewBox="0 0 35 19" version="1.1" xmlns="http://www.w3.org/2000/svg" xmlns:xlink="http://www.w3.org/1999/xlink">
    <!-- Generator: Sketch 42 (36781) - http://www.bohemiancoding.com/sketch -->
    <title>MIT</title>
    <desc>Created with Sketch.</desc>
    <defs></defs>
    <g id="Symbols" stroke="none" stroke-width="1" fill="none" fill-rule="evenodd">
        <g id="MIT" fill="#000000">
            <polygon id="Fill-1" points="18.6668269 3.61769231 22.51125 3.61769231 22.51125 9.61538462e-05 18.6668269 9.61538462e-05"></polygon>
            <polygon id="Fill-2" points="24.9227885 18.0899038 28.7401923 18.0899038 28.7401923 5.72615385 24.9227885 5.72615385"></polygon>
            <polygon id="Fill-3" points="0 18.0899038 3.81740385 18.0899038 3.81740385 9.61538462e-05 0 9.61538462e-05"></polygon>
            <polygon id="Fill-4" points="12.4602885 18.0899038 16.2821154 18.0899038 16.2821154 9.61538462e-05 12.4602885 9.61538462e-05"></polygon>
            <polygon id="Fill-5" points="6.23125 12.3616346 10.0508654 12.3616346 10.0508654 0 6.23125 0"></polygon>
            <polygon id="Fill-6" points="24.8980769 3.61769231 34.97375 3.61769231 34.97375 9.61538462e-05 24.8980769 9.61538462e-05"></polygon>
            <polygon id="Fill-7" points="18.7005769 18.0696154 22.5179808 18.0696154 22.5179808 5.70817308 18.7005769 5.70817308"></polygon>
        </g>
    </g>
</svg>