<?xml version="1.0" encoding="UTF-8" standalone="no"?>
<svg width="35px" height="19px" viewBox="0 0 35 19" version="1.1" xmlns="http://www.w3.org/2000/svg" xmlns:xlink="http://www.w3.org/1999/xlink">
    <!-- Generator: Sketch 42 (36781) - http://www.bohemiancoding.com/sketch -->
    <title>mit</title>
    <desc>Created with Sketch.</desc>
    <defs></defs>
    <g id="Symbols" stroke="none" stroke-width="1" fill="none" fill-rule="evenodd">
        <g id="Desktop-Footer-White" transform="translate(-905.000000, 0.000000)" fill-rule="nonzero" fill="#FFFFFF">
            <g id="footer">
                <g id="mit" transform="translate(905.000000, 0.000000)">
                    <g id="Group-5">
                        <polygon id="Fill-1" points="18.6668269 3.71375 22.51125 3.71375 22.51125 0.0961538462 18.6668269 0.0961538462"></polygon>
                        <polygon id="Fill-2" points="24.9227885 18.1859615 28.7401923 18.1859615 28.7401923 5.82221154 24.9227885 5.82221154"></polygon>
                        <polygon id="Fill-3" points="0 18.1859615 3.81740385 18.1859615 3.81740385 0.0961538462 0 0.0961538462"></polygon>
                        <polygon id="Fill-4" points="12.4602885 18.1859615 16.2821154 18.1859615 16.2821154 0.0961538462 12.4602885 0.0961538462"></polygon>
                        <polygon id="Fill-5" points="6.23125 12.4576923 10.0508654 12.4576923 10.0508654 0.0960576923 6.23125 0.0960576923"></polygon>
                        <polygon id="Fill-6" points="24.8980769 3.71375 34.97375 3.71375 34.97375 0.0961538462 24.8980769 0.0961538462"></polygon>
                        <polygon id="Fill-7" points="18.7005769 18.1656731 22.5179808 18.1656731 22.5179808 5.80423077 18.7005769 5.80423077"></polygon>
                    </g>
                </g>
            </g>
        </g>
    </g>
</svg>