<?xml version="1.0" encoding="UTF-8" standalone="no"?>
<svg width="10px" height="18px" viewBox="0 0 10 18" version="1.1" xmlns="http://www.w3.org/2000/svg" xmlns:xlink="http://www.w3.org/1999/xlink">
    <!-- Generator: Sketch 42 (36781) - http://www.bohemiancoding.com/sketch -->
    <title>Page 1</title>
    <desc>Created with Sketch.</desc>
    <defs></defs>
    <g id="0---Home" stroke="none" stroke-width="1" fill="none" fill-rule="evenodd">
        <g id="Home_Desktop" transform="translate(-303.000000, -706.000000)" fill="#000000">
            <g id="Image" transform="translate(289.000000, 311.000000)">
                <path d="M24,403.573882 C24,403.722796 23.942726,403.854525 23.8281781,403.969073 L15.8213061,411.975946 C15.7067578,412.090494 15.5750296,412.147768 15.4261169,412.147768 C15.2772043,412.147768 15.1454761,412.090494 15.0309278,411.975946 L14.1718213,411.11684 C14.0572732,411.002292 14,410.870563 14,410.721651 C14,410.572738 14.0572732,410.44101 14.1718213,410.326462 L20.9243988,403.573882 L14.1718213,396.821305 C14.0572732,396.706757 14,396.575028 14,396.426118 C14,396.277204 14.0572732,396.145475 14.1718213,396.030927 L15.0309278,395.171822 C15.1454761,395.057274 15.2772043,395 15.4261169,395 C15.5750296,395 15.7067578,395.057274 15.8213061,395.171822 L23.8281781,403.178695 C23.942726,403.293243 24,403.424972 24,403.573882 Z" id="Page-1"></path>
            </g>
        </g>
    </g>
</svg>