<?xml version="1.0" encoding="UTF-8" standalone="no"?>
<svg width="16px" height="16px" viewBox="0 0 16 16" version="1.1" xmlns="http://www.w3.org/2000/svg" xmlns:xlink="http://www.w3.org/1999/xlink">
    <!-- Generator: Sketch 42 (36781) - http://www.bohemiancoding.com/sketch -->
    <title>Page 1</title>
    <desc>Created with Sketch.</desc>
    <defs></defs>
    <g id="Symbols" stroke="none" stroke-width="1" fill="none" fill-rule="evenodd">
        <g id="Desktop-Nav" transform="translate(-922.000000, -5.000000)" fill="#000000">
            <g id="Page-1">
                <path d="M933.416667,15.0416667 L938,19.625 L936.625,21 L932.083333,16.4166667 L932.083333,15.7083333 L931.791667,15.4583333 C930.680549,16.4027813 929.388896,16.875 927.916667,16.875 C926.277771,16.875 924.881949,16.298616 923.729167,15.1458347 C922.576383,13.9930507 922,12.5972293 922,10.9583333 C922,9.31943733 922.576383,7.916672 923.729167,6.75 C924.881949,5.583328 926.26388,5 927.875,5 C929.513896,5 930.909717,5.583328 932.062501,6.75 C933.215283,7.916672 933.791667,9.31943733 933.791667,10.9583333 C933.791667,12.4305627 933.319448,13.722216 932.375,14.8333333 L932.666667,15.0416667 L933.416667,15.0416667 Z M927.916667,15.0416667 C929.05556,15.0416667 930.027773,14.6458373 930.833333,13.8541653 C931.638893,13.062496 932.041667,12.0972267 932.041667,10.9583333 C932.041667,9.81944 931.638893,8.84722667 930.833333,8.04166667 C930.027773,7.23610667 929.05556,6.83333333 927.916667,6.83333333 C926.777773,6.83333333 925.812504,7.23610667 925.020832,8.04166667 C924.229163,8.84722667 923.833333,9.81944 923.833333,10.9583333 C923.833333,12.0972267 924.229163,13.062496 925.020832,13.8541653 C925.812504,14.6458373 926.777773,15.0416667 927.916667,15.0416667 Z"></path>
            </g>
        </g>
    </g>
</svg>