<?xml version="1.0" encoding="UTF-8" standalone="no"?>
<svg width="16px" height="40px" viewBox="0 0 16 40" version="1.1" xmlns="http://www.w3.org/2000/svg" xmlns:xlink="http://www.w3.org/1999/xlink">
    <!-- Generator: Sketch 42 (36781) - http://www.bohemiancoding.com/sketch -->
    <title>Artboard 2</title>
    <desc>Created with Sketch.</desc>
    <defs></defs>
    <g id="Symbols" stroke="none" stroke-width="1" fill="none" fill-rule="evenodd">
        <g id="Artboard-2">
            <path d="M11.4166667,34.0416667 L16,38.625 L14.625,40 L10.0833333,35.4166667 L10.0833333,34.7083333 L9.79166667,34.4583333 C8.68054933,35.4027813 7.388896,35.875 5.91666667,35.875 C4.27777067,35.875 2.88194933,35.298616 1.72916667,34.1458347 C0.5763832,32.9930507 0,31.5972293 0,29.9583333 C0,28.3194373 0.5763832,26.916672 1.72916667,25.75 C2.88194933,24.583328 4.26388,24 5.875,24 C7.513896,24 8.90971733,24.583328 10.0625013,25.75 C11.2152827,26.916672 11.7916667,28.3194373 11.7916667,29.9583333 C11.7916667,31.4305627 11.319448,32.722216 10.375,33.8333333 L10.6666667,34.0416667 L11.4166667,34.0416667 Z M5.91666667,34.0416667 C7.05556,34.0416667 8.02777333,33.6458373 8.83333333,32.8541653 C9.63889333,32.062496 10.0416667,31.0972267 10.0416667,29.9583333 C10.0416667,28.81944 9.63889333,27.8472267 8.83333333,27.0416667 C8.02777333,26.2361067 7.05556,25.8333333 5.91666667,25.8333333 C4.77777333,25.8333333 3.812504,26.2361067 3.020832,27.0416667 C2.22916267,27.8472267 1.83333333,28.81944 1.83333333,29.9583333 C1.83333333,31.0972267 2.22916267,32.062496 3.020832,32.8541653 C3.812504,33.6458373 4.77777333,34.0416667 5.91666667,34.0416667 Z" id="Page-1" fill="#FF3250"></path>
            <path d="M11.4166667,10.0416667 L16,14.625 L14.625,16 L10.0833333,11.4166667 L10.0833333,10.7083333 L9.79166667,10.4583333 C8.68054933,11.4027813 7.388896,11.875 5.91666667,11.875 C4.27777067,11.875 2.88194933,11.298616 1.72916667,10.1458347 C0.5763832,8.99305067 0,7.59722933 0,5.95833333 C0,4.31943733 0.5763832,2.916672 1.72916667,1.75 C2.88194933,0.583328 4.26388,0 5.875,0 C7.513896,0 8.90971733,0.583328 10.0625013,1.75 C11.2152827,2.916672 11.7916667,4.31943733 11.7916667,5.95833333 C11.7916667,7.43056267 11.319448,8.722216 10.375,9.83333333 L10.6666667,10.0416667 L11.4166667,10.0416667 Z M5.91666667,10.0416667 C7.05556,10.0416667 8.02777333,9.64583733 8.83333333,8.85416533 C9.63889333,8.062496 10.0416667,7.09722667 10.0416667,5.95833333 C10.0416667,4.81944 9.63889333,3.84722667 8.83333333,3.04166667 C8.02777333,2.23610667 7.05556,1.83333333 5.91666667,1.83333333 C4.77777333,1.83333333 3.812504,2.23610667 3.020832,3.04166667 C2.22916267,3.84722667 1.83333333,4.81944 1.83333333,5.95833333 C1.83333333,7.09722667 2.22916267,8.062496 3.020832,8.85416533 C3.812504,9.64583733 4.77777333,10.0416667 5.91666667,10.0416667 Z" id="Page-1" fill="#000000"></path>
        </g>
    </g>
</svg>