<?xml version="1.0" encoding="UTF-8" standalone="no"?>
<svg width="23px" height="18px" viewBox="0 0 23 18" version="1.1" xmlns="http://www.w3.org/2000/svg" xmlns:xlink="http://www.w3.org/1999/xlink">
    <!-- Generator: Sketch 42 (36781) - http://www.bohemiancoding.com/sketch -->
    <title>Page 1 Copy</title>
    <desc>Created with Sketch.</desc>
    <defs></defs>
    <g id="Symbols" stroke="none" stroke-width="1" fill="none" fill-rule="evenodd">
        <path d="M21.5480769,0.346153846 C20.6538425,0.865387385 19.6875055,1.22596062 18.6490385,1.42788462 C17.754804,0.475956 16.6442372,0 15.3173077,0 C14.0769166,0 13.0096191,0.447111692 12.1153846,1.34134615 C11.2211502,2.23558062 10.7740385,3.30287815 10.7740385,4.54326923 C10.7740385,4.88942585 10.8173077,5.23557415 10.9038462,5.58173077 C9.05768308,5.49519231 7.31971938,5.03365846 5.68990246,4.19711538 C4.06008831,3.36057231 2.68269785,2.23558338 1.55769231,0.822115385 C1.12499778,1.51442585 0.908653846,2.27884154 0.908653846,3.11538462 C0.908653846,4.73077662 1.58653163,5.98557323 2.94230769,6.87980769 C2.22115015,6.87980769 1.54327237,6.69230862 0.908653846,6.31730769 L0.908653846,6.40384615 C0.908653846,7.47116031 1.24759274,8.42307231 1.92548077,9.25961538 C2.6033688,10.0961585 3.47595508,10.6298058 4.54326923,10.8605769 C4.13942123,10.9471154 3.73557877,10.9903846 3.33173077,10.9903846 C3.04326831,10.9903846 2.75480862,10.9615375 2.46634615,10.9038462 C2.78365569,11.8269277 3.32451415,12.5841323 4.08894369,13.1754794 C4.85337046,13.7668292 5.72595785,14.0625 6.70673077,14.0625 C5.06249169,15.3605833 3.18750923,16.0096154 1.08173077,16.0096154 C0.735575262,16.0096154 0.375001754,15.9951924 0,15.9663462 C2.13462609,17.3221222 4.45671692,18 6.96634615,18 C8.98558615,18 10.8317215,17.6105808 12.5048077,16.8317308 C14.1778938,16.0528807 15.5408594,15.0360646 16.5937486,13.7812486 C17.6466406,12.5264354 18.4615366,11.1418338 19.0384615,9.62740246 C19.6153865,8.11297385 19.9038462,6.59135354 19.9038462,5.0625 L19.9038462,4.5 C20.7980806,3.83653385 21.5480742,3.04327385 22.1538462,2.12019231 C21.3173031,2.49519323 20.4519268,2.74038369 19.5576923,2.85576923 C20.5384652,2.24999723 21.2019203,1.413468 21.5480769,0.346153846 Z" id="Page-1-Copy" fill="#FFFFFF"></path>
    </g>
</svg>