<?xml version="1.0" encoding="UTF-8" standalone="no"?>
<svg width="23px" height="18px" viewBox="0 0 23 18" version="1.1" xmlns="http://www.w3.org/2000/svg" xmlns:xlink="http://www.w3.org/1999/xlink">
    <!-- Generator: Sketch 42 (36781) - http://www.bohemiancoding.com/sketch -->
    <title>Page 1</title>
    <desc>Created with Sketch.</desc>
    <defs></defs>
    <g id="Symbols" stroke="none" stroke-width="1" fill="none" fill-rule="evenodd">
        <g id="Desktop-Footer" transform="translate(-771.000000, 0.000000)" fill="#000000">
            <g id="footer">
                <g id="Social" transform="translate(742.000000, 0.000000)">
                    <path d="M50.5480769,0.346153846 C49.6538425,0.865387385 48.6875055,1.22596062 47.6490385,1.42788462 C46.754804,0.475956 45.6442372,0 44.3173077,0 C43.0769166,0 42.0096191,0.447111692 41.1153846,1.34134615 C40.2211502,2.23558062 39.7740385,3.30287815 39.7740385,4.54326923 C39.7740385,4.88942585 39.8173077,5.23557415 39.9038462,5.58173077 C38.0576831,5.49519231 36.3197194,5.03365846 34.6899025,4.19711538 C33.0600883,3.36057231 31.6826978,2.23558338 30.5576923,0.822115385 C30.1249978,1.51442585 29.9086538,2.27884154 29.9086538,3.11538462 C29.9086538,4.73077662 30.5865316,5.98557323 31.9423077,6.87980769 C31.2211502,6.87980769 30.5432724,6.69230862 29.9086538,6.31730769 L29.9086538,6.40384615 C29.9086538,7.47116031 30.2475927,8.42307231 30.9254808,9.25961538 C31.6033688,10.0961585 32.4759551,10.6298058 33.5432692,10.8605769 C33.1394212,10.9471154 32.7355788,10.9903846 32.3317308,10.9903846 C32.0432683,10.9903846 31.7548086,10.9615375 31.4663462,10.9038462 C31.7836557,11.8269277 32.3245142,12.5841323 33.0889437,13.1754794 C33.8533705,13.7668292 34.7259578,14.0625 35.7067308,14.0625 C34.0624917,15.3605833 32.1875092,16.0096154 30.0817308,16.0096154 C29.7355753,16.0096154 29.3750018,15.9951924 29,15.9663462 C31.1346261,17.3221222 33.4567169,18 35.9663462,18 C37.9855862,18 39.8317215,17.6105808 41.5048077,16.8317308 C43.1778938,16.0528807 44.5408594,15.0360646 45.5937486,13.7812486 C46.6466406,12.5264354 47.4615366,11.1418338 48.0384615,9.62740246 C48.6153865,8.11297385 48.9038462,6.59135354 48.9038462,5.0625 L48.9038462,4.5 C49.7980806,3.83653385 50.5480742,3.04327385 51.1538462,2.12019231 C50.3173031,2.49519323 49.4519268,2.74038369 48.5576923,2.85576923 C49.5384652,2.24999723 50.2019203,1.413468 50.5480769,0.346153846 Z" id="Page-1"></path>
                </g>
            </g>
        </g>
    </g>
</svg>